<svg width="104" height="135" viewBox="0 0 104 135" fill="none" xmlns="http://www.w3.org/2000/svg">
<path d="M78.2058 93.7386C61.2334 114.848 14.3176 -21.7917 32.2422 37.8509C42.4493 71.8141 26.0353 87.754 41.063 83.2223C29.6946 114.56 77.4756 99.1067 46.0898 112.082C47.4866 128.561 112.815 50.6933 78.2058 93.7386Z" fill="url(#paint0_linear_782_2682)"/>
<path d="M78.2058 93.7386C61.2334 114.848 14.3176 -21.7917 32.2422 37.8509C42.4493 71.8141 26.0353 87.754 41.063 83.2223C29.6946 114.56 77.4756 99.1067 46.0898 112.082C47.4866 128.561 112.815 50.6933 78.2058 93.7386Z" fill="url(#paint1_linear_782_2682)"/>
<path d="M78.5313 96.2045C58.1358 117.194 -3.22148 -12.5328 20.4105 44.1925C33.8677 76.4944 14.0289 92.4847 32.4491 87.533C19.2268 118.152 77.7677 101.402 39.3863 115.124C41.5299 130.936 120.121 53.4032 78.5313 96.2045Z" fill="url(#paint2_linear_782_2682)"/>
<path d="M78.5313 96.2045C58.1358 117.194 -3.22148 -12.5328 20.4105 44.1925C33.8677 76.4944 14.0289 92.4847 32.4491 87.533C19.2268 118.152 77.7677 101.402 39.3863 115.124C41.5299 130.936 120.121 53.4032 78.5313 96.2045Z" fill="url(#paint3_linear_782_2682)"/>
<defs>
<linearGradient id="paint0_linear_782_2682" x1="52.325" y1="113.844" x2="38.7225" y2="21.1305" gradientUnits="userSpaceOnUse">
<stop stop-color="#A2BDFD"/>
<stop offset="1" stop-color="#DCDFFF"/>
</linearGradient>
<linearGradient id="paint1_linear_782_2682" x1="52.325" y1="113.844" x2="38.7225" y2="21.1305" gradientUnits="userSpaceOnUse">
<stop stop-color="#A2BDFD"/>
<stop offset="1" stop-color="#DCDFFF"/>
</linearGradient>
<linearGradient id="paint2_linear_782_2682" x1="47.1221" y1="116.576" x2="33.9739" y2="26.9596" gradientUnits="userSpaceOnUse">
<stop stop-color="#B4C5FE"/>
<stop offset="1" stop-color="#D4D9FE"/>
</linearGradient>
<linearGradient id="paint3_linear_782_2682" x1="47.1221" y1="116.576" x2="33.9739" y2="26.9596" gradientUnits="userSpaceOnUse">
<stop stop-color="#B4C5FE"/>
<stop offset="1" stop-color="#D4D9FE"/>
</linearGradient>
</defs>
</svg>
