<svg width="137" height="178" viewBox="0 0 137 178" fill="none" xmlns="http://www.w3.org/2000/svg">
<path d="M25.286 110.532C37.8786 143.879 152.462 -7.83424 105.641 59.4327C78.9795 97.7375 92.9886 124.39 76.0461 112.574C77.4449 156.421 24.0032 117.545 57.9517 146.615C49.4629 166.654 -0.392112 42.5321 25.286 110.532Z" fill="url(#paint0_linear_782_2679)" fill-opacity="0.4"/>
<path d="M25.286 110.532C37.8786 143.879 152.462 -7.83424 105.641 59.4327C78.9795 97.7375 92.9886 124.39 76.0461 112.574C77.4449 156.421 24.0032 117.545 57.9517 146.615C49.4629 166.654 -0.392112 42.5321 25.286 110.532Z" fill="url(#paint1_linear_782_2679)" fill-opacity="0.4"/>
<path d="M23.8701 113.483C40.7933 148.081 170.612 10.9221 117.846 72.205C87.7985 107.102 106.071 135.219 85.0567 121.49C89.0684 165.196 22.6989 120.296 65.0919 153.162C55.9419 172.062 -10.6388 42.9326 23.8701 113.483Z" fill="url(#paint2_linear_782_2679)" fill-opacity="0.4"/>
<path d="M23.8701 113.483C40.7933 148.081 170.612 10.9221 117.846 72.205C87.7985 107.102 106.071 135.219 85.0567 121.49C89.0684 165.196 22.6989 120.296 65.0919 153.162C55.9419 172.062 -10.6388 42.9326 23.8701 113.483Z" fill="url(#paint3_linear_782_2679)" fill-opacity="0.4"/>
<defs>
<linearGradient id="paint0_linear_782_2679" x1="76.5867" y1="27.4419" x2="22.6914" y2="135.734" gradientUnits="userSpaceOnUse">
<stop stop-color="#F4D7F1"/>
<stop offset="0.63" stop-color="#CFC7FF"/>
<stop offset="1" stop-color="#F4D7F1"/>
</linearGradient>
<linearGradient id="paint1_linear_782_2679" x1="76.5867" y1="27.4419" x2="22.6914" y2="135.734" gradientUnits="userSpaceOnUse">
<stop stop-color="#F4D7F1"/>
<stop offset="0.63" stop-color="#CFC7FF"/>
<stop offset="1" stop-color="#F4D7F1"/>
</linearGradient>
<linearGradient id="paint2_linear_782_2679" x1="81.1864" y1="37.0149" x2="29.0913" y2="141.689" gradientUnits="userSpaceOnUse">
<stop stop-color="#F4D7F1"/>
<stop offset="0.555" stop-color="#CFC7FF"/>
<stop offset="1" stop-color="#F4D7F1"/>
</linearGradient>
<linearGradient id="paint3_linear_782_2679" x1="81.1864" y1="37.0149" x2="29.0913" y2="141.689" gradientUnits="userSpaceOnUse">
<stop stop-color="#F4D7F1"/>
<stop offset="0.555" stop-color="#CFC7FF"/>
<stop offset="1" stop-color="#F4D7F1"/>
</linearGradient>
</defs>
</svg>
