<svg width="1512" height="437" viewBox="0 0 1512 437" fill="none" xmlns="http://www.w3.org/2000/svg">
<path d="M618.728 -91.3293C760.771 10.993 380.679 -30.4047 239.795 65.4892C100.494 160.306 97.658 355.436 -121.255 333.203C-16.345 204.716 -96.9654 -216 15.8341 -208.248C138.854 -162.949 523.008 -160.283 618.728 -91.3293Z" fill="white" fill-opacity="0.7"/>
<path d="M680.376 -68.8774C822.419 33.4449 442.326 -7.95284 301.442 87.9411C162.142 182.757 159.305 377.888 -59.6071 355.655C45.3024 227.168 -35.3179 -193.548 77.4815 -185.796C200.501 -140.497 584.655 -137.831 680.376 -68.8774Z" fill="white" fill-opacity="0.7"/>
<path d="M1713.5 404.025C1510.96 499.43 1580.79 252.932 1380.69 165.776C1182.83 79.5987 786.308 85.1556 823.259 -56.7528C1088.23 5.98832 1939.91 -61.8851 1928.4 11.0962C1840.99 92.0843 1849.99 339.734 1713.5 404.025Z" fill="white" fill-opacity="0.7"/>
<path d="M1757.02 344.836C1554.47 440.24 1624.31 193.742 1424.21 106.586C1226.35 20.409 829.824 25.9659 866.776 -115.943C1131.74 -53.2014 1983.43 -121.075 1971.91 -48.0935C1884.5 32.8946 1893.51 280.544 1757.02 344.836Z" fill="white" fill-opacity="0.7"/>
</svg>
