<svg width="206" height="330" viewBox="0 0 206 330" fill="none" xmlns="http://www.w3.org/2000/svg">
<path d="M174.699 244.948C146.156 269.607 -62.3669 313.998 -24.7866 249.748C-12.7117 229.104 -59.1682 166.86 -77.2576 172.129C-115.509 191.67 -52.0753 326.913 -37.5471 325.228C-21.9974 320.699 193.776 228.467 174.699 244.948Z" fill="white" fill-opacity="0.5"/>
<path d="M173.012 -27.3682C212.785 22.7639 106.355 2.48138 66.9064 49.4639C27.9008 95.9185 27.1066 191.521 -34.1912 180.628C-4.81547 117.677 -27.39 -88.4496 4.19502 -84.6516C38.6419 -62.4578 146.209 -61.1513 173.012 -27.3682Z" fill="white" fill-opacity="0.7"/>
<path d="M189.313 -16.6136C233.133 33.8457 117.16 12.4419 74.7887 58.8913C32.8937 104.819 33.1089 200.207 -33.6764 188.666C-2.44019 126.173 -29.3167 -79.7569 5.07539 -75.6214C42.7874 -53.0984 159.783 -50.6173 189.313 -16.6136Z" fill="white" fill-opacity="0.7"/>
</svg>
