<svg width="221" height="413" viewBox="0 0 221 413" fill="none" xmlns="http://www.w3.org/2000/svg">
<path d="M42.0386 360.109C78.6528 366.471 278.468 293.365 214.416 256.995C193.836 245.309 202.392 165.486 220.433 160.393C262.769 157.021 276.137 310.278 262.917 316.612C247.409 320.99 17.5665 355.858 42.0386 360.109Z" fill="white" fill-opacity="0.5"/>
<path d="M271.754 210.328C215.04 257.07 234.595 136.3 178.564 93.5988C123.162 51.377 12.1306 54.0995 22.4775 -15.4275C96.6707 15.312 335.152 -17.942 331.928 17.8146C307.452 57.4942 309.973 178.828 271.754 210.328Z" fill="white" fill-opacity="0.7"/>
<path d="M283.939 181.328C227.225 228.07 246.779 107.3 190.748 64.5988C135.347 22.377 24.3152 25.0995 34.662 -44.4275C108.855 -13.688 347.336 -46.942 344.112 -11.1854C319.637 28.4942 322.157 149.828 283.939 181.328Z" fill="white" fill-opacity="0.7"/>
</svg>
